<mxfile host="app.diagrams.net" modified="2023-11-04T17:56:43.171Z" agent="Mozilla/5.0 (Windows NT 10.0; Win64; x64) AppleWebKit/537.36 (KHTML, like Gecko) Chrome/118.0.0.0 Safari/537.36" etag="CJsqoHGhO6kM5kA8JgAG" version="22.0.8" type="device">
  <diagram id="5Uqc6K7s7WL2RfdHzP5H" name="Page-1">
    <mxGraphModel dx="1050" dy="542" grid="1" gridSize="10" guides="1" tooltips="1" connect="1" arrows="1" fold="1" page="1" pageScale="1" pageWidth="850" pageHeight="1100" math="0" shadow="0">
      <root>
        <mxCell id="0" />
        <mxCell id="1" parent="0" />
        <mxCell id="LDZHhn8SbwgKXiNWPVeb-18" style="edgeStyle=orthogonalEdgeStyle;rounded=0;orthogonalLoop=1;jettySize=auto;html=1;exitX=0.5;exitY=1;exitDx=0;exitDy=0;entryX=0.5;entryY=0;entryDx=0;entryDy=0;" parent="1" source="LDZHhn8SbwgKXiNWPVeb-1" target="LDZHhn8SbwgKXiNWPVeb-2" edge="1">
          <mxGeometry relative="1" as="geometry" />
        </mxCell>
        <mxCell id="LDZHhn8SbwgKXiNWPVeb-1" value="program loads" style="rounded=0;whiteSpace=wrap;html=1;" parent="1" vertex="1">
          <mxGeometry x="360" y="10" width="80" height="40" as="geometry" />
        </mxCell>
        <mxCell id="LDZHhn8SbwgKXiNWPVeb-5" style="edgeStyle=orthogonalEdgeStyle;rounded=0;orthogonalLoop=1;jettySize=auto;html=1;exitX=0.5;exitY=1;exitDx=0;exitDy=0;entryX=0.5;entryY=0;entryDx=0;entryDy=0;" parent="1" source="LDZHhn8SbwgKXiNWPVeb-2" target="LDZHhn8SbwgKXiNWPVeb-4" edge="1">
          <mxGeometry relative="1" as="geometry" />
        </mxCell>
        <mxCell id="LDZHhn8SbwgKXiNWPVeb-11" style="edgeStyle=orthogonalEdgeStyle;rounded=0;orthogonalLoop=1;jettySize=auto;html=1;exitX=0.5;exitY=1;exitDx=0;exitDy=0;" parent="1" source="LDZHhn8SbwgKXiNWPVeb-2" target="LDZHhn8SbwgKXiNWPVeb-10" edge="1">
          <mxGeometry relative="1" as="geometry" />
        </mxCell>
        <mxCell id="LDZHhn8SbwgKXiNWPVeb-34" style="edgeStyle=orthogonalEdgeStyle;rounded=0;orthogonalLoop=1;jettySize=auto;html=1;exitX=0.5;exitY=1;exitDx=0;exitDy=0;entryX=0.5;entryY=0;entryDx=0;entryDy=0;" parent="1" source="LDZHhn8SbwgKXiNWPVeb-2" target="LDZHhn8SbwgKXiNWPVeb-30" edge="1">
          <mxGeometry relative="1" as="geometry" />
        </mxCell>
        <mxCell id="LDZHhn8SbwgKXiNWPVeb-37" style="edgeStyle=orthogonalEdgeStyle;rounded=0;orthogonalLoop=1;jettySize=auto;html=1;exitX=0.5;exitY=1;exitDx=0;exitDy=0;entryX=0.5;entryY=0;entryDx=0;entryDy=0;" parent="1" source="LDZHhn8SbwgKXiNWPVeb-2" target="LDZHhn8SbwgKXiNWPVeb-36" edge="1">
          <mxGeometry relative="1" as="geometry" />
        </mxCell>
        <mxCell id="LDZHhn8SbwgKXiNWPVeb-2" value="Main Menu Options Appear" style="rounded=0;whiteSpace=wrap;html=1;fillColor=#dae8fc;strokeColor=#6c8ebf;" parent="1" vertex="1">
          <mxGeometry x="360" y="70" width="80" height="40" as="geometry" />
        </mxCell>
        <mxCell id="LDZHhn8SbwgKXiNWPVeb-9" value="" style="edgeStyle=orthogonalEdgeStyle;rounded=0;orthogonalLoop=1;jettySize=auto;html=1;" parent="1" source="LDZHhn8SbwgKXiNWPVeb-3" target="LDZHhn8SbwgKXiNWPVeb-8" edge="1">
          <mxGeometry relative="1" as="geometry" />
        </mxCell>
        <mxCell id="LDZHhn8SbwgKXiNWPVeb-54" style="edgeStyle=orthogonalEdgeStyle;rounded=0;orthogonalLoop=1;jettySize=auto;html=1;exitX=0.5;exitY=1;exitDx=0;exitDy=0;entryX=0.5;entryY=0;entryDx=0;entryDy=0;" parent="1" source="LDZHhn8SbwgKXiNWPVeb-3" target="LDZHhn8SbwgKXiNWPVeb-53" edge="1">
          <mxGeometry relative="1" as="geometry" />
        </mxCell>
        <mxCell id="LDZHhn8SbwgKXiNWPVeb-3" value="Check for saved reps file" style="rounded=0;whiteSpace=wrap;html=1;" parent="1" vertex="1">
          <mxGeometry x="240" y="210" width="80" height="40" as="geometry" />
        </mxCell>
        <mxCell id="LDZHhn8SbwgKXiNWPVeb-7" value="" style="edgeStyle=orthogonalEdgeStyle;rounded=0;orthogonalLoop=1;jettySize=auto;html=1;" parent="1" source="LDZHhn8SbwgKXiNWPVeb-4" target="LDZHhn8SbwgKXiNWPVeb-3" edge="1">
          <mxGeometry relative="1" as="geometry" />
        </mxCell>
        <mxCell id="LDZHhn8SbwgKXiNWPVeb-4" value="Load saved file" style="rounded=0;whiteSpace=wrap;html=1;" parent="1" vertex="1">
          <mxGeometry x="240" y="150" width="80" height="40" as="geometry" />
        </mxCell>
        <mxCell id="LDZHhn8SbwgKXiNWPVeb-60" value="" style="edgeStyle=orthogonalEdgeStyle;rounded=0;orthogonalLoop=1;jettySize=auto;html=1;" parent="1" source="LDZHhn8SbwgKXiNWPVeb-8" target="LDZHhn8SbwgKXiNWPVeb-59" edge="1">
          <mxGeometry relative="1" as="geometry" />
        </mxCell>
        <mxCell id="LDZHhn8SbwgKXiNWPVeb-8" value="Open file" style="rounded=0;whiteSpace=wrap;html=1;" parent="1" vertex="1">
          <mxGeometry x="240" y="290" width="80" height="40" as="geometry" />
        </mxCell>
        <mxCell id="LDZHhn8SbwgKXiNWPVeb-16" style="edgeStyle=orthogonalEdgeStyle;rounded=0;orthogonalLoop=1;jettySize=auto;html=1;exitX=0.5;exitY=1;exitDx=0;exitDy=0;entryX=0.5;entryY=0;entryDx=0;entryDy=0;" parent="1" source="LDZHhn8SbwgKXiNWPVeb-10" target="LDZHhn8SbwgKXiNWPVeb-12" edge="1">
          <mxGeometry relative="1" as="geometry" />
        </mxCell>
        <mxCell id="LDZHhn8SbwgKXiNWPVeb-10" value="Create new file" style="rounded=0;whiteSpace=wrap;html=1;" parent="1" vertex="1">
          <mxGeometry x="360" y="150" width="80" height="40" as="geometry" />
        </mxCell>
        <mxCell id="LDZHhn8SbwgKXiNWPVeb-17" style="edgeStyle=orthogonalEdgeStyle;rounded=0;orthogonalLoop=1;jettySize=auto;html=1;exitX=0.5;exitY=1;exitDx=0;exitDy=0;entryX=0.5;entryY=0;entryDx=0;entryDy=0;" parent="1" source="LDZHhn8SbwgKXiNWPVeb-12" target="LDZHhn8SbwgKXiNWPVeb-13" edge="1">
          <mxGeometry relative="1" as="geometry" />
        </mxCell>
        <mxCell id="LDZHhn8SbwgKXiNWPVeb-12" value="Show list of exercises to select from" style="rounded=0;whiteSpace=wrap;html=1;" parent="1" vertex="1">
          <mxGeometry x="360" y="210" width="80" height="40" as="geometry" />
        </mxCell>
        <mxCell id="LDZHhn8SbwgKXiNWPVeb-23" style="edgeStyle=orthogonalEdgeStyle;rounded=0;orthogonalLoop=1;jettySize=auto;html=1;exitX=0.5;exitY=1;exitDx=0;exitDy=0;entryX=1;entryY=0.5;entryDx=0;entryDy=0;" parent="1" source="LDZHhn8SbwgKXiNWPVeb-13" target="LDZHhn8SbwgKXiNWPVeb-12" edge="1">
          <mxGeometry relative="1" as="geometry">
            <mxPoint x="510" y="230" as="targetPoint" />
            <Array as="points">
              <mxPoint x="400" y="335" />
              <mxPoint x="510" y="335" />
              <mxPoint x="510" y="230" />
            </Array>
          </mxGeometry>
        </mxCell>
        <mxCell id="LDZHhn8SbwgKXiNWPVeb-24" style="edgeStyle=orthogonalEdgeStyle;rounded=0;orthogonalLoop=1;jettySize=auto;html=1;exitX=0.5;exitY=1;exitDx=0;exitDy=0;" parent="1" source="LDZHhn8SbwgKXiNWPVeb-13" target="LDZHhn8SbwgKXiNWPVeb-19" edge="1">
          <mxGeometry relative="1" as="geometry" />
        </mxCell>
        <mxCell id="LDZHhn8SbwgKXiNWPVeb-13" value="Select exercise and enter rep/sets" style="rounded=0;whiteSpace=wrap;html=1;" parent="1" vertex="1">
          <mxGeometry x="360" y="270" width="80" height="40" as="geometry" />
        </mxCell>
        <mxCell id="LDZHhn8SbwgKXiNWPVeb-29" style="edgeStyle=orthogonalEdgeStyle;rounded=0;orthogonalLoop=1;jettySize=auto;html=1;exitX=0.5;exitY=1;exitDx=0;exitDy=0;" parent="1" source="LDZHhn8SbwgKXiNWPVeb-19" target="LDZHhn8SbwgKXiNWPVeb-28" edge="1">
          <mxGeometry relative="1" as="geometry" />
        </mxCell>
        <mxCell id="LDZHhn8SbwgKXiNWPVeb-19" value="Save File" style="rounded=0;whiteSpace=wrap;html=1;" parent="1" vertex="1">
          <mxGeometry x="360" y="360" width="80" height="40" as="geometry" />
        </mxCell>
        <mxCell id="LDZHhn8SbwgKXiNWPVeb-25" value="Continue" style="text;html=1;strokeColor=none;fillColor=none;align=center;verticalAlign=middle;whiteSpace=wrap;rounded=0;" parent="1" vertex="1">
          <mxGeometry x="395" y="340" width="60" height="30" as="geometry" />
        </mxCell>
        <mxCell id="LDZHhn8SbwgKXiNWPVeb-26" value="Select another" style="text;html=1;strokeColor=none;fillColor=none;align=center;verticalAlign=middle;whiteSpace=wrap;rounded=0;" parent="1" vertex="1">
          <mxGeometry x="460" y="260" width="60" height="30" as="geometry" />
        </mxCell>
        <mxCell id="LDZHhn8SbwgKXiNWPVeb-62" value="" style="edgeStyle=orthogonalEdgeStyle;rounded=0;orthogonalLoop=1;jettySize=auto;html=1;" parent="1" source="LDZHhn8SbwgKXiNWPVeb-28" target="LDZHhn8SbwgKXiNWPVeb-61" edge="1">
          <mxGeometry relative="1" as="geometry" />
        </mxCell>
        <mxCell id="LDZHhn8SbwgKXiNWPVeb-28" value="Load in this new file" style="rounded=0;whiteSpace=wrap;html=1;" parent="1" vertex="1">
          <mxGeometry x="360" y="420" width="80" height="40" as="geometry" />
        </mxCell>
        <mxCell id="LDZHhn8SbwgKXiNWPVeb-33" style="edgeStyle=orthogonalEdgeStyle;rounded=0;orthogonalLoop=1;jettySize=auto;html=1;exitX=0.5;exitY=1;exitDx=0;exitDy=0;entryX=0.5;entryY=0;entryDx=0;entryDy=0;" parent="1" source="LDZHhn8SbwgKXiNWPVeb-30" target="LDZHhn8SbwgKXiNWPVeb-32" edge="1">
          <mxGeometry relative="1" as="geometry" />
        </mxCell>
        <mxCell id="LDZHhn8SbwgKXiNWPVeb-30" value="Edit existing file" style="rounded=0;whiteSpace=wrap;html=1;" parent="1" vertex="1">
          <mxGeometry x="560" y="150" width="80" height="40" as="geometry" />
        </mxCell>
        <mxCell id="LDZHhn8SbwgKXiNWPVeb-35" style="edgeStyle=orthogonalEdgeStyle;rounded=0;orthogonalLoop=1;jettySize=auto;html=1;exitX=0;exitY=0.5;exitDx=0;exitDy=0;entryX=1;entryY=0.5;entryDx=0;entryDy=0;" parent="1" source="LDZHhn8SbwgKXiNWPVeb-32" target="LDZHhn8SbwgKXiNWPVeb-12" edge="1">
          <mxGeometry relative="1" as="geometry" />
        </mxCell>
        <mxCell id="LDZHhn8SbwgKXiNWPVeb-32" value="Show/ Load existing file" style="rounded=0;whiteSpace=wrap;html=1;" parent="1" vertex="1">
          <mxGeometry x="560" y="210" width="80" height="40" as="geometry" />
        </mxCell>
        <mxCell id="LDZHhn8SbwgKXiNWPVeb-39" style="edgeStyle=orthogonalEdgeStyle;rounded=0;orthogonalLoop=1;jettySize=auto;html=1;exitX=0.5;exitY=1;exitDx=0;exitDy=0;entryX=0.5;entryY=0;entryDx=0;entryDy=0;" parent="1" source="LDZHhn8SbwgKXiNWPVeb-36" target="LDZHhn8SbwgKXiNWPVeb-38" edge="1">
          <mxGeometry relative="1" as="geometry" />
        </mxCell>
        <mxCell id="LDZHhn8SbwgKXiNWPVeb-36" value="Delete existing file" style="rounded=0;whiteSpace=wrap;html=1;" parent="1" vertex="1">
          <mxGeometry x="680" y="150" width="80" height="40" as="geometry" />
        </mxCell>
        <mxCell id="LDZHhn8SbwgKXiNWPVeb-41" style="edgeStyle=orthogonalEdgeStyle;rounded=0;orthogonalLoop=1;jettySize=auto;html=1;exitX=0.5;exitY=1;exitDx=0;exitDy=0;entryX=0.5;entryY=0;entryDx=0;entryDy=0;" parent="1" source="LDZHhn8SbwgKXiNWPVeb-38" target="LDZHhn8SbwgKXiNWPVeb-40" edge="1">
          <mxGeometry relative="1" as="geometry" />
        </mxCell>
        <mxCell id="LDZHhn8SbwgKXiNWPVeb-38" value="Select existing file to show" style="rounded=0;whiteSpace=wrap;html=1;" parent="1" vertex="1">
          <mxGeometry x="680" y="210" width="80" height="40" as="geometry" />
        </mxCell>
        <mxCell id="LDZHhn8SbwgKXiNWPVeb-43" style="edgeStyle=orthogonalEdgeStyle;rounded=0;orthogonalLoop=1;jettySize=auto;html=1;exitX=0.5;exitY=1;exitDx=0;exitDy=0;entryX=0.5;entryY=0;entryDx=0;entryDy=0;" parent="1" source="LDZHhn8SbwgKXiNWPVeb-40" target="LDZHhn8SbwgKXiNWPVeb-42" edge="1">
          <mxGeometry relative="1" as="geometry" />
        </mxCell>
        <mxCell id="LDZHhn8SbwgKXiNWPVeb-49" style="edgeStyle=orthogonalEdgeStyle;rounded=0;orthogonalLoop=1;jettySize=auto;html=1;exitX=0.5;exitY=1;exitDx=0;exitDy=0;entryX=0;entryY=0.5;entryDx=0;entryDy=0;" parent="1" source="LDZHhn8SbwgKXiNWPVeb-40" target="LDZHhn8SbwgKXiNWPVeb-46" edge="1">
          <mxGeometry relative="1" as="geometry">
            <mxPoint x="630" y="440" as="targetPoint" />
            <Array as="points">
              <mxPoint x="720" y="330" />
              <mxPoint x="630" y="330" />
              <mxPoint x="630" y="430" />
            </Array>
          </mxGeometry>
        </mxCell>
        <mxCell id="LDZHhn8SbwgKXiNWPVeb-40" value="Show file data" style="rounded=0;whiteSpace=wrap;html=1;" parent="1" vertex="1">
          <mxGeometry x="680" y="270" width="80" height="40" as="geometry" />
        </mxCell>
        <mxCell id="LDZHhn8SbwgKXiNWPVeb-47" style="edgeStyle=orthogonalEdgeStyle;rounded=0;orthogonalLoop=1;jettySize=auto;html=1;exitX=0.5;exitY=1;exitDx=0;exitDy=0;entryX=0.5;entryY=0;entryDx=0;entryDy=0;" parent="1" source="LDZHhn8SbwgKXiNWPVeb-42" target="LDZHhn8SbwgKXiNWPVeb-46" edge="1">
          <mxGeometry relative="1" as="geometry" />
        </mxCell>
        <mxCell id="LDZHhn8SbwgKXiNWPVeb-42" value="Delete file" style="rounded=0;whiteSpace=wrap;html=1;" parent="1" vertex="1">
          <mxGeometry x="680" y="350" width="80" height="40" as="geometry" />
        </mxCell>
        <mxCell id="LDZHhn8SbwgKXiNWPVeb-44" value="Confirmed deletion" style="text;html=1;strokeColor=none;fillColor=none;align=center;verticalAlign=middle;whiteSpace=wrap;rounded=0;" parent="1" vertex="1">
          <mxGeometry x="720" y="320" width="60" height="30" as="geometry" />
        </mxCell>
        <mxCell id="LDZHhn8SbwgKXiNWPVeb-46" value="Return to Main Menu" style="rounded=0;whiteSpace=wrap;html=1;fillColor=#dae8fc;strokeColor=#6c8ebf;" parent="1" vertex="1">
          <mxGeometry x="680" y="410" width="80" height="40" as="geometry" />
        </mxCell>
        <mxCell id="LDZHhn8SbwgKXiNWPVeb-50" value="Cancel Deletion" style="text;html=1;strokeColor=none;fillColor=none;align=center;verticalAlign=middle;whiteSpace=wrap;rounded=0;" parent="1" vertex="1">
          <mxGeometry x="570" y="360" width="60" height="30" as="geometry" />
        </mxCell>
        <mxCell id="LDZHhn8SbwgKXiNWPVeb-56" value="" style="edgeStyle=orthogonalEdgeStyle;rounded=0;orthogonalLoop=1;jettySize=auto;html=1;" parent="1" source="LDZHhn8SbwgKXiNWPVeb-53" target="LDZHhn8SbwgKXiNWPVeb-55" edge="1">
          <mxGeometry relative="1" as="geometry" />
        </mxCell>
        <mxCell id="LDZHhn8SbwgKXiNWPVeb-53" value="File not found" style="rounded=0;whiteSpace=wrap;html=1;" parent="1" vertex="1">
          <mxGeometry x="140" y="290" width="80" height="40" as="geometry" />
        </mxCell>
        <mxCell id="LDZHhn8SbwgKXiNWPVeb-55" value="Return to Main Menu" style="rounded=0;whiteSpace=wrap;html=1;fillColor=#dae8fc;strokeColor=#6c8ebf;" parent="1" vertex="1">
          <mxGeometry x="140" y="350" width="80" height="40" as="geometry" />
        </mxCell>
        <mxCell id="LDZHhn8SbwgKXiNWPVeb-57" value="File found" style="text;html=1;strokeColor=none;fillColor=none;align=center;verticalAlign=middle;whiteSpace=wrap;rounded=0;" parent="1" vertex="1">
          <mxGeometry x="280" y="260" width="60" height="30" as="geometry" />
        </mxCell>
        <mxCell id="LDZHhn8SbwgKXiNWPVeb-58" value="No File Found" style="text;html=1;strokeColor=none;fillColor=none;align=center;verticalAlign=middle;whiteSpace=wrap;rounded=0;" parent="1" vertex="1">
          <mxGeometry x="130" y="250" width="60" height="30" as="geometry" />
        </mxCell>
        <mxCell id="LDZHhn8SbwgKXiNWPVeb-59" value="Continue to detection" style="rounded=0;whiteSpace=wrap;html=1;fillColor=#d5e8d4;strokeColor=#82b366;" parent="1" vertex="1">
          <mxGeometry x="240" y="350" width="80" height="40" as="geometry" />
        </mxCell>
        <mxCell id="LDZHhn8SbwgKXiNWPVeb-61" value="Continue to detection" style="rounded=0;whiteSpace=wrap;html=1;fillColor=#d5e8d4;strokeColor=#82b366;" parent="1" vertex="1">
          <mxGeometry x="360" y="480" width="80" height="40" as="geometry" />
        </mxCell>
        <mxCell id="0PSD1pWDmSSP8fKBAILO-1" value="" style="sketch=0;html=1;aspect=fixed;strokeColor=none;shadow=0;align=center;fillColor=#2D9C5E;verticalAlign=top;labelPosition=center;verticalLabelPosition=bottom;shape=mxgraph.gcp2.check" vertex="1" parent="1">
          <mxGeometry x="120" y="335" width="43.75" height="35" as="geometry" />
        </mxCell>
        <mxCell id="0PSD1pWDmSSP8fKBAILO-2" value="" style="sketch=0;html=1;aspect=fixed;strokeColor=none;shadow=0;align=center;fillColor=#2D9C5E;verticalAlign=top;labelPosition=center;verticalLabelPosition=bottom;shape=mxgraph.gcp2.check" vertex="1" parent="1">
          <mxGeometry x="120" y="272.5" width="43.75" height="35" as="geometry" />
        </mxCell>
        <mxCell id="0PSD1pWDmSSP8fKBAILO-3" value="" style="sketch=0;html=1;aspect=fixed;strokeColor=none;shadow=0;align=center;fillColor=#2D9C5E;verticalAlign=top;labelPosition=center;verticalLabelPosition=bottom;shape=mxgraph.gcp2.check" vertex="1" parent="1">
          <mxGeometry x="340" y="50" width="43.75" height="35" as="geometry" />
        </mxCell>
        <mxCell id="0PSD1pWDmSSP8fKBAILO-4" value="" style="sketch=0;html=1;aspect=fixed;strokeColor=none;shadow=0;align=center;fillColor=#2D9C5E;verticalAlign=top;labelPosition=center;verticalLabelPosition=bottom;shape=mxgraph.gcp2.check" vertex="1" parent="1">
          <mxGeometry x="220" y="130" width="43.75" height="35" as="geometry" />
        </mxCell>
        <mxCell id="0PSD1pWDmSSP8fKBAILO-6" value="" style="sketch=0;html=1;aspect=fixed;strokeColor=none;shadow=0;align=center;fillColor=#2D9C5E;verticalAlign=top;labelPosition=center;verticalLabelPosition=bottom;shape=mxgraph.gcp2.check" vertex="1" parent="1">
          <mxGeometry x="220" y="190" width="43.75" height="35" as="geometry" />
        </mxCell>
        <mxCell id="0PSD1pWDmSSP8fKBAILO-7" value="" style="sketch=0;html=1;aspect=fixed;strokeColor=none;shadow=0;align=center;fillColor=#2D9C5E;verticalAlign=top;labelPosition=center;verticalLabelPosition=bottom;shape=mxgraph.gcp2.check" vertex="1" parent="1">
          <mxGeometry x="220" y="272.5" width="43.75" height="35" as="geometry" />
        </mxCell>
      </root>
    </mxGraphModel>
  </diagram>
</mxfile>
